<?xml version="1.0" standalone="no"?>
<!DOCTYPE svg PUBLIC "-//W3C//DTD SVG 20010904//EN"
 "http://www.w3.org/TR/2001/REC-SVG-20010904/DTD/svg10.dtd">
<svg version="1.0" xmlns="http://www.w3.org/2000/svg"
 width="800.000000pt" height="800.000000pt" viewBox="0 0 800.000000 800.000000"
 preserveAspectRatio="xMidYMid meet">

<g transform="translate(0.000000,800.000000) scale(0.100000,-0.100000)"
fill="#000000" stroke="none">
<path d="M4379 7145 c-7 -16 -19 -37 -27 -47 -12 -14 -10 -17 17 -23 32 -7 39
-23 20 -42 -7 -7 -6 -12 6 -17 9 -3 13 -2 10 4 -3 6 -2 10 3 10 15 0 21 -38 8
-43 -14 -6 -41 12 -49 33 -4 12 -6 11 -6 -3 -1 -11 -6 -15 -12 -11 -7 4 -10 1
-7 -7 3 -8 11 -13 18 -11 11 3 11 0 1 -12 -11 -13 -11 -17 2 -22 9 -3 14 -11
11 -18 -3 -7 2 -18 10 -25 11 -9 18 -7 35 15 12 15 19 34 16 41 -2 8 -1 12 4
9 5 -3 11 0 14 8 3 7 26 19 51 27 52 15 50 21 -19 65 -25 15 -45 30 -45 33 0
4 -11 20 -24 36 l-24 30 -13 -30z m6 -175 c-3 -5 -12 -10 -18 -10 -7 0 -6 4 3
10 19 12 23 12 15 0z"/>
<path d="M4320 7046 c0 -2 8 -10 18 -17 15 -13 16 -12 3 4 -13 16 -21 21 -21
13z"/>
<path d="M5017 6813 c-16 -15 -6 -44 19 -53 33 -13 32 -13 44 9 7 15 6 23 -6
35 -16 16 -46 21 -57 9z"/>
<path d="M4232 6275 c-18 -23 -20 -31 -10 -43 11 -13 10 -15 -4 -9 -17 6 -22
-11 -7 -23 4 -3 14 -23 23 -44 17 -40 31 -40 38 -1 1 11 19 28 41 38 20 10 37
22 37 27 0 5 -16 14 -35 20 -19 6 -35 15 -35 19 0 4 -6 15 -13 25 -13 17 -15
17 -35 -9z"/>
<path d="M2777 5806 c-27 -7 -60 -22 -74 -33 -58 -42 -56 -24 -57 -928 -1
-811 -1 -831 19 -870 31 -63 70 -82 178 -90 50 -4 604 -4 1229 -2 1084 5 1139
6 1169 24 45 26 71 64 80 120 12 75 11 1611 -2 1656 -5 21 -24 53 -40 72 -43
49 -105 65 -250 65 l-117 0 -45 -92 c-24 -51 -42 -96 -40 -100 2 -5 71 -8 154
-8 l149 0 -2 -772 -3 -773 -1134 -3 c-700 -1 -1139 2 -1144 7 -6 6 -9 305 -8
768 1 742 2 758 21 775 17 14 20 29 20 107 l0 91 -27 -1 c-16 0 -50 -6 -76
-13z"/>
<path d="M3766 5722 l1 -97 194 0 c189 0 196 1 250 26 51 24 167 100 229 149
l25 20 -350 0 -350 0 1 -98z"/>
<path d="M4810 5499 c0 -15 -148 -195 -206 -250 -124 -119 -298 -209 -614
-319 -52 -18 -99 -36 -105 -40 -5 -4 -31 -13 -57 -21 -56 -16 -62 -29 -14 -29
19 0 38 -5 42 -12 5 -8 10 -6 15 8 7 16 8 17 8 2 1 -10 -8 -23 -19 -30 -18
-12 -17 -13 12 -25 33 -14 80 -17 92 -6 3 4 16 8 29 10 40 6 231 75 292 106
198 99 364 256 480 456 38 65 70 161 54 161 -5 0 -9 -5 -9 -11z m-915 -699
c-3 -5 -11 -10 -16 -10 -6 0 -7 5 -4 10 3 6 11 10 16 10 6 0 7 -4 4 -10z m55
-10 c0 -13 -11 -13 -30 0 -12 8 -11 10 8 10 12 0 22 -4 22 -10z"/>
<path d="M3100 4909 c0 -5 5 -7 10 -4 6 3 10 8 10 11 0 2 -4 4 -10 4 -5 0 -10
-5 -10 -11z"/>
<path d="M3055 4830 c-96 -181 -138 -330 -93 -330 5 0 7 7 4 16 -3 8 -2 12 3
9 6 -3 9 -14 8 -25 -1 -10 -5 -16 -9 -14 -4 3 -8 0 -8 -5 0 -6 5 -11 10 -11 6
0 10 -4 10 -10 0 -19 -29 2 -38 28 -8 24 -9 22 -25 -29 -9 -30 -18 -103 -21
-164 l-4 -110 24 70 c27 82 26 77 16 71 -10 -6 -15 50 -7 75 4 11 11 16 17 13
6 -4 5 -10 -3 -15 -11 -7 -11 -9 -1 -9 10 0 10 -5 2 -21 -7 -11 -9 -23 -6 -27
7 -7 3 -13 66 93 29 50 75 116 101 147 33 38 45 59 38 64 -8 5 -10 2 -5 -7 4
-8 0 -5 -8 5 -9 11 -16 24 -16 28 0 5 -11 -1 -24 -14 -37 -36 -64 -57 -68 -53
-2 2 -5 -6 -5 -18 -2 -19 -1 -20 8 -4 6 9 16 17 24 17 7 0 15 5 17 12 3 7 7 5
11 -6 4 -9 3 -15 -2 -12 -4 3 -17 -1 -27 -9 -12 -9 -14 -14 -6 -15 7 0 10 -5
7 -11 -4 -6 -9 -8 -12 -5 -3 3 -13 -4 -22 -15 -16 -20 -17 -20 -34 -1 -16 17
-16 20 -3 25 9 4 15 1 13 -5 -1 -6 4 -13 12 -15 10 -4 11 2 6 28 -12 52 -7 96
15 146 11 25 20 50 20 55 0 6 9 23 21 39 11 16 19 35 17 41 -3 7 -13 -3 -23
-22z m52 -190 c-3 -11 0 -20 6 -20 8 0 7 -4 -1 -12 -19 -19 -37 4 -23 31 15
27 25 27 18 1z"/>
<path d="M3720 4830 c0 -5 9 -10 20 -10 11 0 20 5 20 10 0 6 -9 10 -20 10 -11
0 -20 -4 -20 -10z"/>
<path d="M3206 4689 c-14 -11 -31 -17 -37 -13 -8 4 -9 3 -5 -4 10 -17 17 -15
51 13 36 30 29 34 -9 4z"/>
<path d="M3580 4550 c-9 -6 -10 -10 -3 -10 6 0 15 5 18 10 8 12 4 12 -15 0z"/>
<path d="M3526 4533 c-4 -5 -12 -9 -17 -9 -5 -1 -13 -2 -18 -3 -29 -4 -41 -34
-39 -99 1 -49 3 -56 5 -24 2 23 9 42 14 42 5 0 9 6 8 13 -4 30 3 45 26 55 23
11 47 0 25 -11 -6 -3 -5 -4 2 -2 7 1 12 8 10 15 -2 7 3 17 10 21 10 7 9 9 -3
9 -9 0 -19 -3 -23 -7z"/>
<path d="M3449 4322 c-3 -20 -2 -29 4 -23 5 5 7 19 5 32 -3 20 -5 19 -9 -9z"/>
<path d="M3466 4271 c-4 -7 -5 -15 -2 -18 9 -9 19 4 14 18 -4 11 -6 11 -12 0z"/>
<path d="M3427 4250 c-9 -14 -17 -28 -17 -33 0 -5 -13 -26 -30 -47 -16 -21
-30 -43 -30 -49 0 -7 32 -10 98 -9 l97 2 -83 3 c-49 2 -80 8 -77 13 4 6 15 10
26 10 10 0 19 5 19 10 0 6 -4 10 -10 10 -17 0 -11 30 11 61 11 16 19 35 17 41
-3 7 -11 2 -21 -12z"/>
<path d="M3460 4231 c0 -7 -4 -10 -9 -7 -5 3 -12 -6 -15 -20 -7 -26 7 -54 26
-54 5 0 2 8 -7 17 -16 16 -16 18 5 35 18 14 20 22 12 30 -9 9 -12 9 -12 -1z"/>
<path d="M2664 3670 c-11 -4 -34 -25 -51 -47 -48 -61 -366 -613 -385 -668 -21
-59 -22 -78 -7 -145 16 -76 59 -114 141 -129 90 -15 3205 -16 3278 0 94 20
141 85 141 191 0 71 -14 105 -124 290 -46 79 -121 206 -165 283 -94 163 -132
209 -187 224 -48 13 -2608 15 -2641 1z m1564 -568 c12 -27 22 -54 22 -60 0 -9
-65 -12 -251 -12 l-251 0 6 23 c3 13 12 40 21 60 l15 37 208 0 208 0 22 -48z"/>
<path d="M5934 2187 c3 -75 1 -139 -4 -142 -5 -3 -37 4 -72 16 -76 25 -134 22
-201 -11 -64 -32 -115 -84 -146 -150 -22 -47 -26 -68 -26 -146 1 -82 4 -97 34
-158 39 -80 106 -138 185 -161 57 -17 128 -13 161 9 15 9 52 12 138 8 l117 -5
0 432 0 431 -49 0 c-26 0 -69 3 -95 6 l-47 7 5 -136z m-84 -293 c56 -23 80
-65 80 -143 0 -100 -40 -151 -120 -151 -59 0 -95 22 -120 76 -40 82 -12 181
62 217 41 21 48 21 98 1z"/>
<path d="M4290 2059 c-33 -22 -89 -31 -100 -18 -3 4 -40 8 -82 11 l-78 3 0
-386 c0 -213 -3 -394 -6 -403 -5 -14 7 -16 91 -16 l97 0 -3 110 c-2 75 1 114
9 122 9 9 12 8 12 -6 0 -9 4 -15 9 -12 5 4 11 1 13 -5 2 -6 16 -12 31 -12 15
-1 27 -5 27 -8 0 -13 76 -15 120 -4 63 17 99 38 141 82 74 77 110 192 90 290
-32 160 -129 252 -283 268 -44 5 -59 2 -88 -16z m-165 -109 c3 -5 -1 -10 -9
-10 -9 0 -16 5 -16 10 0 6 4 10 9 10 6 0 13 -4 16 -10z m56 -5 c0 -13 -41 -19
-41 -7 0 11 20 22 33 18 5 -1 8 -6 8 -11z m66 -1 c-3 -3 -12 -4 -19 -1 -8 3
-5 6 6 6 11 1 17 -2 13 -5z m-100 -45 c5 -16 8 -18 15 -7 8 11 9 10 6 -1 -2
-8 -14 -16 -27 -18 -13 -2 -20 1 -16 7 4 6 1 17 -5 25 -10 12 -9 15 5 15 9 0
19 -9 22 -21z m253 -4 c120 -62 95 -281 -35 -301 -85 -12 -155 57 -155 153 0
65 12 98 51 134 36 33 91 39 139 14z m-326 -81 c3 -8 2 -12 -4 -9 -6 3 -10 10
-10 16 0 14 7 11 14 -7z"/>
<path d="M5005 2071 c-84 -22 -161 -86 -207 -173 -20 -37 -23 -58 -23 -143 0
-89 3 -105 27 -151 41 -78 106 -129 200 -159 43 -14 97 -25 118 -25 46 0 136
22 178 44 28 14 31 21 37 81 4 36 5 69 1 72 -3 3 -39 0 -78 -7 -94 -17 -188
-15 -225 3 -39 21 -69 55 -57 67 5 5 95 11 199 12 l190 3 3 69 c4 93 -19 164
-75 226 -24 27 -61 55 -85 65 -48 19 -159 28 -203 16z m160 -185 c30 -20 33
-52 4 -61 -28 -9 -178 5 -185 16 -9 15 23 57 48 62 40 9 107 0 133 -17z"/>
<path d="M3508 2063 c12 -2 30 -2 40 0 9 3 -1 5 -23 4 -22 0 -30 -2 -17 -4z"/>
<path d="M3570 2066 c0 -2 7 -9 15 -16 9 -7 15 -8 15 -2 0 5 -7 12 -15 16 -8
3 -15 4 -15 2z"/>
<path d="M3800 2041 c0 -6 5 -13 10 -16 6 -3 10 -11 10 -16 0 -6 -4 -7 -10 -4
-6 3 -7 -1 -4 -9 3 -9 10 -13 15 -10 5 3 9 -3 9 -13 0 -15 2 -16 10 -3 5 8 10
30 10 48 0 28 -3 32 -25 32 -14 0 -25 -4 -25 -9z"/>
<path d="M3643 1859 c15 -20 28 -50 28 -70 2 -30 2 -31 6 -6 3 17 9 25 16 20
17 -10 -28 49 -54 72 -20 17 -19 15 4 -16z"/>
<path d="M3691 1754 c0 -11 3 -14 6 -6 3 7 2 16 -1 19 -3 4 -6 -2 -5 -13z"/>
<path d="M3667 1691 c-4 -17 -3 -21 5 -13 5 5 8 16 6 23 -3 8 -7 3 -11 -10z"/>
<path d="M3625 1621 c-3 -5 -2 -12 3 -15 5 -3 9 1 9 9 0 17 -3 19 -12 6z"/>
<path d="M3480 1589 c0 -12 45 -18 83 -12 21 3 35 8 32 11 -8 8 -115 8 -115 1z"/>
<path d="M3803 1516 c2 -20 -13 -32 -55 -41 -51 -10 -29 -25 37 -25 52 0 65 3
65 15 0 9 -7 18 -16 22 -8 3 -13 12 -10 20 3 8 2 12 -3 8 -5 -3 -12 1 -15 7
-3 7 -4 5 -3 -6z"/>
<path d="M3690 1470 c0 -5 5 -10 10 -10 6 0 10 5 10 10 0 6 -4 10 -10 10 -5 0
-10 -4 -10 -10z"/>
<path d="M3058 1453 c7 -3 16 -2 19 1 4 3 -2 6 -13 5 -11 0 -14 -3 -6 -6z"/>
<path d="M2715 1072 c-16 -11 -13 -312 3 -312 9 0 12 39 12 160 0 88 -1 160
-2 160 -2 0 -7 -4 -13 -8z"/>
<path d="M2900 1078 c0 -2 -2 -74 -3 -161 -1 -120 1 -157 11 -157 15 0 18 305
2 315 -5 3 -10 5 -10 3z"/>
<path d="M5690 1013 c0 -40 -5 -74 -12 -81 -9 -9 -9 -12 0 -12 8 0 12 -20 12
-60 0 -51 -3 -62 -23 -75 -18 -11 -31 -12 -60 -4 -46 13 -67 42 -67 96 0 51
23 68 81 60 48 -6 52 10 5 18 -71 14 -106 -15 -106 -85 0 -72 29 -102 105
-108 82 -7 85 -1 85 169 0 81 -4 140 -10 144 -6 4 -10 -19 -10 -62z"/>
<path d="M3345 1056 c-42 -18 -83 -69 -91 -112 -14 -75 47 -166 122 -180 45
-8 114 11 114 33 0 13 -3 13 -26 -2 -20 -13 -39 -16 -73 -12 -37 4 -52 12 -78
43 -28 32 -33 45 -33 90 0 48 4 57 35 89 30 29 43 35 78 35 23 -1 53 -7 67
-15 30 -17 40 -18 40 -5 0 13 -49 37 -90 44 -21 3 -48 0 -65 -8z"/>
<path d="M2404 1023 c-8 -21 -27 -69 -41 -108 -14 -38 -34 -86 -44 -105 -24
-44 -24 -53 -1 -41 12 6 32 52 56 125 21 64 42 119 47 122 11 6 45 -68 78
-168 21 -64 51 -109 51 -77 0 14 -34 102 -75 194 -12 28 -25 60 -29 73 -10 32
-23 27 -42 -15z"/>
<path d="M4999 1055 c-3 -5 -9 -22 -13 -37 -6 -28 10 -50 20 -24 7 19 1 74 -7
61z"/>
<path d="M5019 959 c-8 -5 -29 -6 -46 -3 -20 4 -33 2 -33 -4 0 -6 10 -12 23
-14 21 -3 22 -8 23 -87 0 -58 4 -86 13 -89 9 -3 12 17 11 79 -2 117 -3 110 25
103 14 -3 25 -2 25 4 0 15 -25 21 -41 11z"/>
<path d="M5244 961 c-52 -22 -70 -96 -37 -151 28 -48 98 -66 139 -36 26 20 11
32 -16 13 -19 -13 -28 -13 -58 -3 -21 7 -42 23 -48 37 -25 52 -25 66 -1 95 50
58 147 23 132 -48 -4 -17 -2 -28 4 -28 18 0 13 76 -6 99 -20 24 -77 35 -109
22z"/>
<path d="M3667 940 c-20 -16 -27 -30 -27 -57 0 -81 53 -132 125 -119 65 13 94
96 53 156 -21 31 -29 35 -74 38 -39 2 -56 -2 -77 -18z m132 -26 c28 -35 26
-75 -4 -108 -32 -35 -69 -34 -106 3 -37 37 -40 92 -7 115 36 26 93 21 117 -10z"/>
<path d="M3995 950 c-3 -5 -6 -45 -7 -87 0 -97 0 -103 10 -103 4 0 8 33 7 73
0 100 4 107 63 107 67 0 74 -12 70 -105 -2 -58 0 -75 11 -75 10 0 12 18 10 83
-5 108 -13 117 -95 117 -34 0 -66 -4 -69 -10z"/>
<path d="M4344 936 c-40 -34 -41 -103 -3 -142 30 -30 100 -44 124 -24 25 20
17 32 -10 14 -23 -15 -27 -15 -62 3 -30 14 -41 27 -52 61 -13 41 -12 45 10 68
16 18 33 24 62 24 47 0 66 -19 68 -70 l1 -35 10 34 c14 51 -14 85 -74 89 -37
2 -51 -2 -74 -22z"/>
<path d="M4665 936 c-49 -49 -22 -147 45 -167 40 -12 90 -6 90 11 0 6 -16 8
-40 4 -35 -6 -43 -3 -70 24 -22 22 -30 40 -30 65 0 50 26 69 92 66 30 -2 52 1
51 6 -2 6 -28 11 -58 13 -47 3 -58 0 -80 -22z"/>
<path d="M4380 871 c0 -12 37 -24 50 -16 20 12 10 25 -20 25 -16 0 -30 -4 -30
-9z"/>
<path d="M5246 871 c-7 -10 42 -21 61 -14 7 3 10 9 7 14 -7 12 -61 12 -68 0z"/>
<path d="M2412 858 c3 -7 15 -14 29 -16 23 -2 23 -2 5 13 -24 18 -39 20 -34 3z"/>
</g>
</svg>
